<?xml version="1.0" encoding="UTF-8" standalone="no"?>
<!DOCTYPE svg PUBLIC "-//W3C//DTD SVG 1.1//EN" "http://www.w3.org/Graphics/SVG/1.1/DTD/svg11.dtd">
<svg width="100%" height="100%" viewBox="0 0 100 100" version="1.1" xmlns="http://www.w3.org/2000/svg" xmlns:xlink="http://www.w3.org/1999/xlink" xml:space="preserve" xmlns:serif="http://www.serif.com/" style="fill-rule:evenodd;clip-rule:evenodd;stroke-linecap:square;stroke-linejoin:round;stroke-miterlimit:1.5;">
    <g>
        <path d="M3.109,50.249C31.592,81.468 67.686,81.592 97.015,50" style="fill:none;stroke:rgb(64,48,60);stroke-width:3.39px;"/>
        <path d="M49.851,81.219L49.851,95.522" style="fill:none;stroke:rgb(64,48,60);stroke-width:3.39px;"/>
        <g transform="matrix(0.883976,-0.467533,0.467533,0.883976,-19.1143,30.9484)">
            <path d="M49.851,81.219L49.851,95.522" style="fill:none;stroke:rgb(64,48,60);stroke-width:3.39px;"/>
        </g>
        <g transform="matrix(-0.883976,-0.467533,-0.467533,0.883976,119.315,30.9484)">
            <path d="M49.851,81.219L49.851,95.522" style="fill:none;stroke:rgb(64,48,60);stroke-width:3.39px;"/>
        </g>
    </g>
    <g transform="matrix(1,0,0,-1,0,99.8081)">
        <path d="M3.109,49.752C5.119,51.955 7.167,54.5 9.248,56.393C36.652,81.327 69.756,79.363 97.015,50" style="fill:none;stroke:rgb(64,48,60);stroke-width:3.39px;"/>
        <path d="M49.851,81.219L49.851,95.522" style="fill:none;stroke:rgb(64,48,60);stroke-width:3.39px;"/>
        <g transform="matrix(0.883976,-0.467533,0.467533,0.883976,-19.1143,30.9484)">
            <path d="M49.851,81.219L49.851,95.522" style="fill:none;stroke:rgb(64,48,60);stroke-width:3.39px;"/>
        </g>
        <g transform="matrix(-0.883976,-0.467533,-0.467533,0.883976,119.315,30.9484)">
            <path d="M49.851,81.219L49.851,95.522" style="fill:none;stroke:rgb(64,48,60);stroke-width:3.39px;"/>
        </g>
    </g>
    <circle cx="49.708" cy="50.341" r="23.083" style="fill:none;stroke:rgb(64,48,60);stroke-width:3.39px;stroke-linecap:round;"/>
    <g transform="matrix(0.292419,0,0,0.292419,35.1723,35.6204)">
        <circle cx="49.708" cy="50.341" r="23.083" style="fill:none;stroke:rgb(64,48,60);stroke-width:11.59px;stroke-linecap:round;"/>
    </g>
</svg>
