<svg width="76" height="104" viewBox="0 0 76 104" fill="none" xmlns="http://www.w3.org/2000/svg">
<circle cx="41.0646" cy="34.9355" r="34.9355" fill="#40303C"/>
<circle cx="34.9355" cy="42.9032" r="34.9355" fill="#A7C0F2"/>
<circle cx="50.8709" cy="28.8065" r="3.06452" fill="#40303C"/>
<circle cx="50.8709" cy="40.4516" r="3.06452" fill="#40303C"/>
<circle cx="50.8709" cy="52.0968" r="3.06452" fill="#40303C"/>
<path d="M53.6291 86.1129V59.4516C53.3226 67.1129 46.5807 64.6613 46.2742 69.5645C46.098 72.3843 48.4194 73.206 48.4194 78.4516C48.4194 82.7419 42.5968 85.4696 42.5968 87.0322C42.5968 88.5948 43.8226 89.1774 43.8226 93.1613C43.8226 97.1451 40.6559 101.946 39.2258 103.274C42.086 103.581 48.4194 101.63 50.871 98.0645C54.242 93.1613 53.6291 90.4032 53.6291 86.1129Z" fill="#40303C"/>
<path d="M32.936 31.8492C32.936 29.8332 31.28 28.2132 29.264 28.2132H27.5C26.42 28.2132 25.448 28.6812 24.8 29.4012C24.116 28.6812 23.144 28.2132 22.1 28.2132H20.3C19.472 28.2132 18.716 28.4652 18.104 28.9332C17.744 28.5012 17.204 28.2132 16.592 28.2132H14.936C14.864 28.2132 14.864 28.2492 14.864 28.2852V30.2652V51.3972C14.864 52.5492 15.764 53.4492 16.844 53.4492H18.5C18.536 53.4492 18.572 53.4492 18.572 53.3772V51.3972C18.572 51.3972 18.572 51.3972 18.572 51.3612V30.3012C18.572 30.3012 18.572 30.3012 18.572 30.2652C18.572 29.8332 18.428 29.4012 18.176 29.0412C18.788 28.6092 19.508 28.3212 20.3 28.3212C21.236 28.3212 22.028 29.1132 22.028 30.0492V51.3972C22.028 52.5492 22.928 53.4492 24.008 53.4492H25.7C25.736 53.4492 25.736 53.4492 25.736 53.3772V51.3972V31.8492C25.736 30.9492 25.412 30.1212 24.872 29.5092C25.52 28.7892 26.456 28.3212 27.5 28.3212C28.436 28.3212 29.192 29.1132 29.192 30.0492V51.3972C29.192 52.5492 30.092 53.4492 31.208 53.4492H32.864C32.9 53.4492 32.936 53.4492 32.936 53.3772V51.3972V31.8492Z" fill="#40303C"/>
</svg>
